<svg xmlns="http://www.w3.org/2000/svg" xmlns:xlink="http://www.w3.org/1999/xlink" version="1.1" width="256" height="256" viewBox="0 0 256 256" xml:space="preserve">

<defs>
</defs>
<g style="stroke: none; stroke-width: 0; stroke-dasharray: none; stroke-linecap: butt; stroke-linejoin: miter; stroke-miterlimit: 10; fill: none; fill-rule: nonzero; opacity: 1;" transform="translate(1.4065934065934016 1.4065934065934016) scale(2.81 2.81)" >
	<circle cx="45" cy="45" r="45" style="stroke: none; stroke-width: 1; stroke-dasharray: none; stroke-linecap: butt; stroke-linejoin: miter; stroke-miterlimit: 10; fill: rgb(46,155,0); fill-rule: nonzero; opacity: 1;" transform="  matrix(1 0 0 1 0 0) "/>
	<path d="M 36.924 32.577 c -2.525 0 -4.579 -2.054 -4.579 -4.579 v -4.362 c 0 -2.524 2.054 -4.579 4.579 -4.579 s 4.579 2.054 4.579 4.579 v 4.362 C 41.502 30.523 39.449 32.577 36.924 32.577 z M 36.924 22.058 c -0.871 0 -1.579 0.708 -1.579 1.579 v 4.362 c 0 0.871 0.708 1.579 1.579 1.579 s 1.579 -0.708 1.579 -1.579 v -4.362 C 38.502 22.766 37.794 22.058 36.924 22.058 z" style="stroke: none; stroke-width: 1; stroke-dasharray: none; stroke-linecap: butt; stroke-linejoin: miter; stroke-miterlimit: 10; fill: rgb(255,255,255); fill-rule: nonzero; opacity: 1;" transform=" matrix(1 0 0 1 0 0) " stroke-linecap="round" />
	<path d="M 53.076 43.097 c -2.525 0 -4.579 -2.054 -4.579 -4.579 v -4.361 c 0 -2.525 2.054 -4.579 4.579 -4.579 s 4.579 2.054 4.579 4.579 v 4.361 C 57.655 41.042 55.602 43.097 53.076 43.097 z M 53.076 32.577 c -0.871 0 -1.579 0.708 -1.579 1.579 v 4.361 c 0 0.871 0.708 1.579 1.579 1.579 s 1.579 -0.708 1.579 -1.579 v -4.361 C 54.655 33.286 53.947 32.577 53.076 32.577 z" style="stroke: none; stroke-width: 1; stroke-dasharray: none; stroke-linecap: butt; stroke-linejoin: miter; stroke-miterlimit: 10; fill: rgb(255,255,255); fill-rule: nonzero; opacity: 1;" transform=" matrix(1 0 0 1 0 0) " stroke-linecap="round" />
	<path d="M 38.746 43.097 c -0.261 0 -0.524 -0.068 -0.765 -0.21 c -0.712 -0.423 -0.946 -1.344 -0.523 -2.056 l 12.506 -21.039 c 0.423 -0.712 1.344 -0.945 2.056 -0.523 c 0.712 0.423 0.946 1.344 0.522 2.056 L 40.037 42.363 C 39.756 42.835 39.258 43.097 38.746 43.097 z" style="stroke: none; stroke-width: 1; stroke-dasharray: none; stroke-linecap: butt; stroke-linejoin: miter; stroke-miterlimit: 10; fill: rgb(255,255,255); fill-rule: nonzero; opacity: 1;" transform=" matrix(1 0 0 1 0 0) " stroke-linecap="round" />
	<path d="M 41.416 68.941 c -3.91 0 -7.09 -3.181 -7.09 -7.09 v -7.919 c 0 -3.909 3.181 -7.09 7.09 -7.09 c 3.909 0 7.09 3.181 7.09 7.09 v 7.919 C 48.506 65.761 45.325 68.941 41.416 68.941 z M 41.416 49.843 c -2.255 0 -4.09 1.835 -4.09 4.09 v 7.919 c 0 2.255 1.835 4.09 4.09 4.09 s 4.09 -1.835 4.09 -4.09 v -7.919 C 45.506 51.678 43.671 49.843 41.416 49.843 z" style="stroke: none; stroke-width: 1; stroke-dasharray: none; stroke-linecap: butt; stroke-linejoin: miter; stroke-miterlimit: 10; fill: rgb(255,255,255); fill-rule: nonzero; opacity: 1;" transform=" matrix(1 0 0 1 0 0) " stroke-linecap="round" />
	<path d="M 58.734 68.941 c -3.909 0 -7.09 -3.181 -7.09 -7.09 v -7.919 c 0 -3.909 3.181 -7.09 7.09 -7.09 s 7.09 3.181 7.09 7.09 v 7.919 C 65.824 65.761 62.644 68.941 58.734 68.941 z M 58.734 49.843 c -2.255 0 -4.09 1.835 -4.09 4.09 v 7.919 c 0 2.255 1.835 4.09 4.09 4.09 s 4.09 -1.835 4.09 -4.09 v -7.919 C 62.824 51.678 60.989 49.843 58.734 49.843 z" style="stroke: none; stroke-width: 1; stroke-dasharray: none; stroke-linecap: butt; stroke-linejoin: miter; stroke-miterlimit: 10; fill: rgb(255,255,255); fill-rule: nonzero; opacity: 1;" transform=" matrix(1 0 0 1 0 0) " stroke-linecap="round" />
	<path d="M 28.728 68.941 c -0.829 0 -1.5 -0.672 -1.5 -1.5 V 54.01 l -0.248 0.436 c -0.41 0.72 -1.325 0.97 -2.046 0.562 c -0.72 -0.41 -0.971 -1.326 -0.562 -2.046 l 3.052 -5.36 c 0.337 -0.591 1.03 -0.879 1.688 -0.708 c 0.658 0.174 1.116 0.77 1.116 1.45 v 19.099 C 30.228 68.27 29.556 68.941 28.728 68.941 z" style="stroke: none; stroke-width: 1; stroke-dasharray: none; stroke-linecap: butt; stroke-linejoin: miter; stroke-miterlimit: 10; fill: rgb(255,255,255); fill-rule: nonzero; opacity: 1;" transform=" matrix(1 0 0 1 0 0) " stroke-linecap="round" />
	<path d="M 31.696 68.941 h -6.02 c -0.829 0 -1.5 -0.672 -1.5 -1.5 s 0.671 -1.5 1.5 -1.5 h 6.02 c 0.829 0 1.5 0.672 1.5 1.5 S 32.524 68.941 31.696 68.941 z" style="stroke: none; stroke-width: 1; stroke-dasharray: none; stroke-linecap: butt; stroke-linejoin: miter; stroke-miterlimit: 10; fill: rgb(255,255,255); fill-rule: nonzero; opacity: 1;" transform=" matrix(1 0 0 1 0 0) " stroke-linecap="round" />
</g>
</svg>