<svg xmlns="http://www.w3.org/2000/svg" xmlns:xlink="http://www.w3.org/1999/xlink" version="1.1" width="256" height="256" viewBox="0 0 256 256" xml:space="preserve">

<defs>
</defs>
<g style="stroke: none; stroke-width: 0; stroke-dasharray: none; stroke-linecap: butt; stroke-linejoin: miter; stroke-miterlimit: 10; fill: none; fill-rule: nonzero; opacity: 1;" transform="translate(1.4065934065934016 1.4065934065934016) scale(2.81 2.81)" >
	<path d="M 26.924 20.117 c 0 6.302 -5.109 11.411 -11.411 11.411 S 4.103 26.419 4.103 20.117 h 0.01 c 0 -4.152 4.298 -8.329 2.227 -14.072 c 2.487 0.804 3.874 2.372 5.153 4.856 c 2.675 -3.94 3.513 -6.899 2.896 -11.402 c 3.621 2.82 5.46 6.645 5.021 11.756 c 0.823 -2.469 2.553 -3.735 4.49 -4.726 c -1.831 6.38 3.013 9.671 3.013 13.588 H 26.924 z" style="stroke: none; stroke-width: 1; stroke-dasharray: none; stroke-linecap: butt; stroke-linejoin: miter; stroke-miterlimit: 10; fill: rgb(248,72,72); fill-rule: nonzero; opacity: 1;" transform=" matrix(2.81 0 0 2.81 1.4065934065934016 1.4065934065934016) " stroke-linecap="round" />
	<circle cx="44.997" cy="59.637" r="20.607" style="stroke: none; stroke-width: 1; stroke-dasharray: none; stroke-linecap: butt; stroke-linejoin: miter; stroke-miterlimit: 10; fill: rgb(220,243,249); fill-rule: nonzero; opacity: 1;" transform="  matrix(1 0 0 1 0 0) "/>
	<path d="M 45 82.244 c -6.039 0 -11.716 -2.352 -15.985 -6.622 c -4.27 -4.27 -6.622 -9.946 -6.622 -15.985 c 0 -6.038 2.352 -11.716 6.622 -15.985 c 8.814 -8.813 23.156 -8.814 31.971 0 l 0 0 c 4.271 4.27 6.622 9.947 6.622 15.985 c 0 6.039 -2.352 11.716 -6.622 15.985 C 56.716 79.893 51.038 82.244 45 82.244 z M 45 41.039 c -4.765 0 -9.53 1.814 -13.157 5.441 c -3.514 3.515 -5.45 8.188 -5.45 13.157 c 0 4.971 1.936 9.643 5.45 13.157 s 8.187 5.45 13.157 5.45 c 4.97 0 9.643 -1.936 13.157 -5.45 s 5.45 -8.187 5.45 -13.157 c 0 -4.97 -1.936 -9.643 -5.45 -13.157 C 54.529 42.853 49.765 41.039 45 41.039 z" style="stroke: none; stroke-width: 1; stroke-dasharray: none; stroke-linecap: butt; stroke-linejoin: miter; stroke-miterlimit: 10; fill: rgb(250,185,49); fill-rule: nonzero; opacity: 1;" transform=" matrix(1 0 0 1 0 0) " stroke-linecap="round" />
	<path d="M 53.171 68.122 c -0.44 0 -0.884 -0.145 -1.253 -0.442 l -8.172 -6.579 C 43.274 60.721 43 60.148 43 59.543 V 47.317 c 0 -1.104 0.896 -2 2 -2 s 2 0.896 2 2 v 11.269 l 7.426 5.979 c 0.86 0.692 0.997 1.951 0.304 2.812 C 54.335 67.867 53.755 68.122 53.171 68.122 z" style="stroke: none; stroke-width: 1; stroke-dasharray: none; stroke-linecap: butt; stroke-linejoin: miter; stroke-miterlimit: 10; fill: rgb(134,140,150); fill-rule: nonzero; opacity: 1;" transform=" matrix(1 0 0 1 0 0) " stroke-linecap="round" />
</g>
</svg>